<svg xmlns="http://www.w3.org/2000/svg" class="railroad" width="724" height="2508" viewBox="0 0 724 2508"><style>svg.railroad{background:#fff;font-family:monospace;font-size:13px}.rr-line{stroke:#334;stroke-width:2;fill:none}.rr-cap{fill:#334}.rr-term{fill:#e8f0ff;stroke:#334;stroke-width:2}.rr-nonterm{fill:#fff7e8;stroke:#334;stroke-width:2}.rr-label{fill:#111;text-anchor:middle;dominant-baseline:middle}.rr-comment{fill:#666;font-style:italic;text-anchor:middle;dominant-baseline:middle}.rr-title{fill:#113;font-weight:bold;font-size:15px}.rr-legend{fill:#333;font-size:12px}.rr-legend-tok{fill:#113;font-weight:bold}a:hover .rr-nonterm{fill:#ffe6b3;cursor:pointer}</style><g><g id="stylesheet"><text class="rr-title" x="16" y="31">stylesheet</text><circle class="rr-cap" cx="46" cy="42" r="3"/><path class="rr-line" d="M46 42V56"/><a href="#items"><rect class="rr-nonterm" x="16" y="56" width="60" height="26" rx="4" ry="4"/><text class="rr-label" x="46" y="69">items</text></a><path class="rr-line" d="M46 82V96"/><circle class="rr-cap" cx="46" cy="96" r="3"/></g><g id="val"><text class="rr-title" x="16" y="145">val</text><circle class="rr-cap" cx="112" cy="156" r="3"/><path class="rr-line" d="M112 156V170"/><path class="rr-line" d="M112 170V188"/><path class="rr-line" d="M38 188H186"/><path class="rr-line" d="M38 250H186"/><path class="rr-line" d="M112 250V268"/><path class="rr-line" d="M38 188V206"/><a href="#map"><rect class="rr-nonterm" x="16" y="206" width="44" height="26" rx="4" ry="4"/><text class="rr-label" x="38" y="219">map</text></a><path class="rr-line" d="M38 232V250"/><path class="rr-line" d="M112 188V206"/><a href="#list"><rect class="rr-nonterm" x="86" y="206" width="52" height="26" rx="4" ry="4"/><text class="rr-label" x="112" y="219">list</text></a><path class="rr-line" d="M112 232V250"/><path class="rr-line" d="M186 188V206"/><rect class="rr-term" x="164" y="206" width="44" height="26" rx="13" ry="13"/><text class="rr-label" x="186" y="219">VAL</text><path class="rr-line" d="M186 232V250"/><path class="rr-line" d="M112 268V282"/><circle class="rr-cap" cx="112" cy="282" r="3"/></g><g id="map"><text class="rr-title" x="16" y="331">map</text><circle class="rr-cap" cx="64" cy="342" r="3"/><path class="rr-line" d="M64 342V356"/><rect class="rr-term" x="49" y="356" width="30" height="26" rx="13" ry="13"/><text class="rr-label" x="64" y="369">{</text><path class="rr-line" d="M64 382V400"/><path class="rr-line" d="M64 400V418"/><path class="rr-line" d="M42 418H86"/><path class="rr-line" d="M42 480H86"/><path class="rr-line" d="M64 480V498"/><path class="rr-line" d="M42 418V436"/><a href="#pair"><rect class="rr-nonterm" x="16" y="436" width="52" height="26" rx="4" ry="4"/><text class="rr-label" x="42" y="449">pair</text></a><path class="rr-line" d="M42 462V480"/><path class="rr-line" d="M86 418V436"/><path class="rr-line" d="M86 436V448"/><path class="rr-line" d="M86 448V480"/><path class="rr-line" d="M64 498V516"/><rect class="rr-term" x="49" y="516" width="30" height="26" rx="13" ry="13"/><text class="rr-label" x="64" y="529">}</text><path class="rr-line" d="M64 542V556"/><circle class="rr-cap" cx="64" cy="556" r="3"/></g><g id="list"><text class="rr-title" x="16" y="605">list</text><circle class="rr-cap" cx="112" cy="616" r="3"/><path class="rr-line" d="M112 616V630"/><path class="rr-line" d="M112 630V648"/><path class="rr-line" d="M42 648H182"/><path class="rr-line" d="M42 754H182"/><path class="rr-line" d="M112 754V772"/><path class="rr-line" d="M42 648V666"/><a href="#elem"><rect class="rr-nonterm" x="16" y="666" width="52" height="26" rx="4" ry="4"/><text class="rr-label" x="42" y="679">elem</text></a><path class="rr-line" d="M42 692V754"/><path class="rr-line" d="M112 648V666"/><rect class="rr-term" x="94" y="666" width="36" height="26" rx="13" ry="13"/><text class="rr-label" x="112" y="679">OS</text><path class="rr-line" d="M112 692V754"/><path class="rr-line" d="M182 648V666"/><rect class="rr-term" x="164" y="666" width="36" height="26" rx="13" ry="13"/><text class="rr-label" x="182" y="679">OS</text><path class="rr-line" d="M182 692V710"/><a href="#elem"><rect class="rr-nonterm" x="156" y="710" width="52" height="26" rx="4" ry="4"/><text class="rr-label" x="182" y="723">elem</text></a><path class="rr-line" d="M182 736V754"/><path class="rr-line" d="M112 772V790"/><rect class="rr-term" x="94" y="790" width="36" height="26" rx="13" ry="13"/><text class="rr-label" x="112" y="803">CS</text><path class="rr-line" d="M112 816V830"/><circle class="rr-cap" cx="112" cy="830" r="3"/></g><g id="pair"><text class="rr-title" x="16" y="879">pair</text><circle class="rr-cap" cx="38" cy="890" r="3"/><path class="rr-line" d="M38 890V904"/><path class="rr-line" d="M38 904V922"/><rect class="rr-term" x="16" y="922" width="44" height="26" rx="13" ry="13"/><text class="rr-label" x="38" y="935">KEY</text><path class="rr-line" d="M38 948V966"/><rect class="rr-term" x="23" y="966" width="30" height="26" rx="13" ry="13"/><text class="rr-label" x="38" y="979">:</text><path class="rr-line" d="M38 992V1010"/><a href="#val"><rect class="rr-nonterm" x="16" y="1010" width="44" height="26" rx="4" ry="4"/><text class="rr-label" x="38" y="1023">val</text></a><path class="rr-line" d="M38 1036V1054"/><path class="rr-line" d="M38 1045H85"/><path class="rr-line" d="M38 913H85"/><path class="rr-line" d="M85 992V1045"/><path class="rr-line" d="M85 913V966"/><rect class="rr-term" x="70" y="966" width="30" height="26" rx="13" ry="13"/><text class="rr-label" x="85" y="979">;</text><path class="rr-line" d="M38 1054V1068"/><circle class="rr-cap" cx="38" cy="1068" r="3"/></g><g id="elem"><text class="rr-title" x="16" y="1117">elem</text><circle class="rr-cap" cx="38" cy="1128" r="3"/><path class="rr-line" d="M38 1128V1142"/><path class="rr-line" d="M38 1142V1160"/><a href="#val"><rect class="rr-nonterm" x="16" y="1160" width="44" height="26" rx="4" ry="4"/><text class="rr-label" x="38" y="1173">val</text></a><path class="rr-line" d="M38 1186V1204"/><path class="rr-line" d="M38 1195H85"/><path class="rr-line" d="M38 1151H85"/><path class="rr-line" d="M85 1186V1195"/><path class="rr-line" d="M85 1151V1160"/><rect class="rr-term" x="70" y="1160" width="30" height="26" rx="13" ry="13"/><text class="rr-label" x="85" y="1173">;</text><path class="rr-line" d="M38 1204V1218"/><circle class="rr-cap" cx="38" cy="1218" r="3"/></g><g id="items"><text class="rr-title" x="16" y="1267">items</text><circle class="rr-cap" cx="62" cy="1278" r="3"/><path class="rr-line" d="M62 1278V1292"/><path class="rr-line" d="M62 1292V1310"/><a href="#statement"><rect class="rr-nonterm" x="16" y="1310" width="92" height="26" rx="4" ry="4"/><text class="rr-label" x="62" y="1323">statement</text></a><path class="rr-line" d="M62 1336V1354"/><path class="rr-line" d="M62 1345H118"/><path class="rr-line" d="M62 1301H118"/><path class="rr-line" d="M118 1301V1345"/><path class="rr-line" d="M62 1354V1368"/><circle class="rr-cap" cx="62" cy="1368" r="3"/></g><g id="statement"><text class="rr-title" x="16" y="1417">statement</text><circle class="rr-cap" cx="263" cy="1428" r="3"/><path class="rr-line" d="M263 1428V1442"/><path class="rr-line" d="M263 1442V1460"/><path class="rr-line" d="M34 1460H492"/><path class="rr-line" d="M34 1566H492"/><path class="rr-line" d="M263 1566V1584"/><path class="rr-line" d="M34 1460V1478"/><rect class="rr-term" x="16" y="1478" width="36" height="26" rx="13" ry="13"/><text class="rr-label" x="34" y="1491">CC</text><path class="rr-line" d="M34 1504V1566"/><path class="rr-line" d="M124 1460V1478"/><rect class="rr-term" x="102" y="1478" width="44" height="26" rx="13" ry="13"/><text class="rr-label" x="124" y="1491">ATR</text><path class="rr-line" d="M124 1504V1522"/><a href="#rulesbody"><rect class="rr-nonterm" x="78" y="1522" width="92" height="26" rx="4" ry="4"/><text class="rr-label" x="124" y="1535">rulesbody</text></a><path class="rr-line" d="M124 1548V1566"/><path class="rr-line" d="M238 1460V1478"/><rect class="rr-term" x="216" y="1478" width="44" height="26" rx="13" ry="13"/><text class="rr-label" x="238" y="1491">ATD</text><path class="rr-line" d="M238 1504V1522"/><a href="#declbody"><rect class="rr-nonterm" x="196" y="1522" width="84" height="26" rx="4" ry="4"/><text class="rr-label" x="238" y="1535">declbody</text></a><path class="rr-line" d="M238 1548V1566"/><path class="rr-line" d="M340 1460V1478"/><rect class="rr-term" x="318" y="1478" width="44" height="26" rx="13" ry="13"/><text class="rr-label" x="340" y="1491">ATK</text><path class="rr-line" d="M340 1504V1522"/><a href="#kfbody"><rect class="rr-nonterm" x="306" y="1522" width="68" height="26" rx="4" ry="4"/><text class="rr-label" x="340" y="1535">kfbody</text></a><path class="rr-line" d="M340 1548V1566"/><path class="rr-line" d="M422 1460V1478"/><rect class="rr-term" x="400" y="1478" width="44" height="26" rx="13" ry="13"/><text class="rr-label" x="422" y="1491">ATS</text><path class="rr-line" d="M422 1504V1566"/><path class="rr-line" d="M492 1460V1478"/><a href="#sel"><rect class="rr-nonterm" x="470" y="1478" width="44" height="26" rx="4" ry="4"/><text class="rr-label" x="492" y="1491">sel</text></a><path class="rr-line" d="M492 1504V1566"/><path class="rr-line" d="M263 1584V1598"/><circle class="rr-cap" cx="263" cy="1598" r="3"/></g><g id="sel"><text class="rr-title" x="16" y="1647">sel</text><circle class="rr-cap" cx="77" cy="1658" r="3"/><path class="rr-line" d="M77 1658V1672"/><rect class="rr-term" x="59" y="1672" width="36" height="26" rx="13" ry="13"/><text class="rr-label" x="77" y="1685">TX</text><path class="rr-line" d="M77 1698V1716"/><path class="rr-line" d="M77 1716V1734"/><path class="rr-line" d="M34 1734H120"/><path class="rr-line" d="M34 1796H120"/><path class="rr-line" d="M77 1796V1814"/><path class="rr-line" d="M34 1734V1752"/><rect class="rr-term" x="16" y="1752" width="36" height="26" rx="13" ry="13"/><text class="rr-label" x="34" y="1765">GC</text><path class="rr-line" d="M34 1778V1796"/><path class="rr-line" d="M120 1734V1752"/><a href="#declbody"><rect class="rr-nonterm" x="78" y="1752" width="84" height="26" rx="4" ry="4"/><text class="rr-label" x="120" y="1765">declbody</text></a><path class="rr-line" d="M120 1778V1796"/><path class="rr-line" d="M77 1814V1828"/><circle class="rr-cap" cx="77" cy="1828" r="3"/></g><g id="declbody"><text class="rr-title" x="16" y="1877">declbody</text><circle class="rr-cap" cx="70" cy="1888" r="3"/><path class="rr-line" d="M70 1888V1902"/><rect class="rr-term" x="55" y="1902" width="30" height="26" rx="13" ry="13"/><text class="rr-label" x="70" y="1915">{</text><path class="rr-line" d="M70 1928V1946"/><path class="rr-line" d="M70 1946V1964"/><path class="rr-line" d="M46 1964H94"/><path class="rr-line" d="M46 2026H94"/><path class="rr-line" d="M70 2026V2044"/><path class="rr-line" d="M46 1964V1982"/><a href="#decls"><rect class="rr-nonterm" x="16" y="1982" width="60" height="26" rx="4" ry="4"/><text class="rr-label" x="46" y="1995">decls</text></a><path class="rr-line" d="M46 2008V2026"/><path class="rr-line" d="M94 1964V1982"/><path class="rr-line" d="M94 1982V1994"/><path class="rr-line" d="M94 1994V2026"/><path class="rr-line" d="M70 2044V2062"/><rect class="rr-term" x="55" y="2062" width="30" height="26" rx="13" ry="13"/><text class="rr-label" x="70" y="2075">}</text><path class="rr-line" d="M70 2088V2102"/><circle class="rr-cap" cx="70" cy="2102" r="3"/></g><g id="decls"><text class="rr-title" x="562" y="31">decls</text><circle class="rr-cap" cx="588" cy="42" r="3"/><path class="rr-line" d="M588 42V56"/><path class="rr-line" d="M588 56V74"/><a href="#decl"><rect class="rr-nonterm" x="562" y="74" width="52" height="26" rx="4" ry="4"/><text class="rr-label" x="588" y="87">decl</text></a><path class="rr-line" d="M588 100V118"/><path class="rr-line" d="M588 109H639"/><path class="rr-line" d="M588 65H639"/><path class="rr-line" d="M639 100V109"/><path class="rr-line" d="M639 65V74"/><rect class="rr-term" x="624" y="74" width="30" height="26" rx="13" ry="13"/><text class="rr-label" x="639" y="87">;</text><path class="rr-line" d="M588 118V132"/><circle class="rr-cap" cx="588" cy="132" r="3"/></g><g id="decl"><text class="rr-title" x="562" y="181">decl</text><circle class="rr-cap" cx="621" cy="192" r="3"/><path class="rr-line" d="M621 192V206"/><path class="rr-line" d="M621 206V224"/><path class="rr-line" d="M580 224H662"/><path class="rr-line" d="M580 374H662"/><path class="rr-line" d="M621 374V392"/><path class="rr-line" d="M580 224V242"/><rect class="rr-term" x="562" y="242" width="36" height="26" rx="13" ry="13"/><text class="rr-label" x="580" y="255">CC</text><path class="rr-line" d="M580 268V374"/><path class="rr-line" d="M662 224V242"/><rect class="rr-term" x="644" y="242" width="36" height="26" rx="13" ry="13"/><text class="rr-label" x="662" y="255">TX</text><path class="rr-line" d="M662 268V286"/><rect class="rr-term" x="647" y="286" width="30" height="26" rx="13" ry="13"/><text class="rr-label" x="662" y="299">:</text><path class="rr-line" d="M662 312V330"/><a href="#declval"><rect class="rr-nonterm" x="624" y="330" width="76" height="26" rx="4" ry="4"/><text class="rr-label" x="662" y="343">declval</text></a><path class="rr-line" d="M662 356V374"/><path class="rr-line" d="M621 392V406"/><circle class="rr-cap" cx="621" cy="406" r="3"/></g><g id="declval"><text class="rr-title" x="562" y="455">declval</text><circle class="rr-cap" cx="580" cy="466" r="3"/><path class="rr-line" d="M580 466V480"/><rect class="rr-term" x="562" y="480" width="36" height="26" rx="13" ry="13"/><text class="rr-label" x="580" y="493">VL</text><path class="rr-line" d="M580 506V520"/><circle class="rr-cap" cx="580" cy="520" r="3"/></g><g id="rulesbody"><text class="rr-title" x="562" y="569">rulesbody</text><circle class="rr-cap" cx="616" cy="580" r="3"/><path class="rr-line" d="M616 580V594"/><rect class="rr-term" x="601" y="594" width="30" height="26" rx="13" ry="13"/><text class="rr-label" x="616" y="607">{</text><path class="rr-line" d="M616 620V638"/><path class="rr-line" d="M616 638V656"/><path class="rr-line" d="M592 656H640"/><path class="rr-line" d="M592 718H640"/><path class="rr-line" d="M616 718V736"/><path class="rr-line" d="M592 656V674"/><a href="#items"><rect class="rr-nonterm" x="562" y="674" width="60" height="26" rx="4" ry="4"/><text class="rr-label" x="592" y="687">items</text></a><path class="rr-line" d="M592 700V718"/><path class="rr-line" d="M640 656V674"/><path class="rr-line" d="M640 674V686"/><path class="rr-line" d="M640 686V718"/><path class="rr-line" d="M616 736V754"/><rect class="rr-term" x="601" y="754" width="30" height="26" rx="13" ry="13"/><text class="rr-label" x="616" y="767">}</text><path class="rr-line" d="M616 780V794"/><circle class="rr-cap" cx="616" cy="794" r="3"/></g><g id="kfbody"><text class="rr-title" x="562" y="843">kfbody</text><circle class="rr-cap" cx="628" cy="854" r="3"/><path class="rr-line" d="M628 854V868"/><rect class="rr-term" x="613" y="868" width="30" height="26" rx="13" ry="13"/><text class="rr-label" x="628" y="881">{</text><path class="rr-line" d="M628 894V912"/><path class="rr-line" d="M628 912V930"/><path class="rr-line" d="M600 930H656"/><path class="rr-line" d="M600 992H656"/><path class="rr-line" d="M628 992V1010"/><path class="rr-line" d="M600 930V948"/><a href="#kfitems"><rect class="rr-nonterm" x="562" y="948" width="76" height="26" rx="4" ry="4"/><text class="rr-label" x="600" y="961">kfitems</text></a><path class="rr-line" d="M600 974V992"/><path class="rr-line" d="M656 930V948"/><path class="rr-line" d="M656 948V960"/><path class="rr-line" d="M656 960V992"/><path class="rr-line" d="M628 1010V1028"/><rect class="rr-term" x="613" y="1028" width="30" height="26" rx="13" ry="13"/><text class="rr-label" x="628" y="1041">}</text><path class="rr-line" d="M628 1054V1068"/><circle class="rr-cap" cx="628" cy="1068" r="3"/></g><g id="kfitems"><text class="rr-title" x="562" y="1117">kfitems</text><circle class="rr-cap" cx="604" cy="1128" r="3"/><path class="rr-line" d="M604 1128V1142"/><path class="rr-line" d="M604 1142V1160"/><a href="#keyframe"><rect class="rr-nonterm" x="562" y="1160" width="84" height="26" rx="4" ry="4"/><text class="rr-label" x="604" y="1173">keyframe</text></a><path class="rr-line" d="M604 1186V1204"/><path class="rr-line" d="M604 1195H656"/><path class="rr-line" d="M604 1151H656"/><path class="rr-line" d="M656 1151V1195"/><path class="rr-line" d="M604 1204V1218"/><circle class="rr-cap" cx="604" cy="1218" r="3"/></g><g id="keyframe"><text class="rr-title" x="562" y="1267">keyframe</text><circle class="rr-cap" cx="617" cy="1278" r="3"/><path class="rr-line" d="M617 1278V1292"/><path class="rr-line" d="M617 1292V1310"/><path class="rr-line" d="M580 1310H654"/><path class="rr-line" d="M580 1372H654"/><path class="rr-line" d="M617 1372V1390"/><path class="rr-line" d="M580 1310V1328"/><rect class="rr-term" x="562" y="1328" width="36" height="26" rx="13" ry="13"/><text class="rr-label" x="580" y="1341">CC</text><path class="rr-line" d="M580 1354V1372"/><path class="rr-line" d="M654 1310V1328"/><a href="#kfsel"><rect class="rr-nonterm" x="624" y="1328" width="60" height="26" rx="4" ry="4"/><text class="rr-label" x="654" y="1341">kfsel</text></a><path class="rr-line" d="M654 1354V1372"/><path class="rr-line" d="M617 1390V1404"/><circle class="rr-cap" cx="617" cy="1404" r="3"/></g><g id="kfsel"><text class="rr-title" x="562" y="1453">kfsel</text><circle class="rr-cap" cx="623" cy="1464" r="3"/><path class="rr-line" d="M623 1464V1478"/><rect class="rr-term" x="605" y="1478" width="36" height="26" rx="13" ry="13"/><text class="rr-label" x="623" y="1491">TX</text><path class="rr-line" d="M623 1504V1522"/><path class="rr-line" d="M623 1522V1540"/><path class="rr-line" d="M580 1540H666"/><path class="rr-line" d="M580 1602H666"/><path class="rr-line" d="M623 1602V1620"/><path class="rr-line" d="M580 1540V1558"/><rect class="rr-term" x="562" y="1558" width="36" height="26" rx="13" ry="13"/><text class="rr-label" x="580" y="1571">GC</text><path class="rr-line" d="M580 1584V1602"/><path class="rr-line" d="M666 1540V1558"/><a href="#declbody"><rect class="rr-nonterm" x="624" y="1558" width="84" height="26" rx="4" ry="4"/><text class="rr-label" x="666" y="1571">declbody</text></a><path class="rr-line" d="M666 1584V1602"/><path class="rr-line" d="M623 1620V1634"/><circle class="rr-cap" cx="623" cy="1634" r="3"/></g><text class="rr-title" x="16" y="2151">Tokens</text><text class="rr-legend" x="16" y="2173"><tspan class="rr-legend-tok">ATD</tspan>  —  an at-rule with a declarations body (@font-face, @page)</text><text class="rr-legend" x="16" y="2191"><tspan class="rr-legend-tok">ATK</tspan>  —  @keyframes</text><text class="rr-legend" x="16" y="2209"><tspan class="rr-legend-tok">ATR</tspan>  —  an at-rule with a rules body (@media, @supports, …)</text><text class="rr-legend" x="16" y="2227"><tspan class="rr-legend-tok">ATS</tspan>  —  a statement at-rule (@import, @charset, …)</text><text class="rr-legend" x="16" y="2245"><tspan class="rr-legend-tok">CC</tspan>  —  a comment</text><text class="rr-legend" x="16" y="2263"><tspan class="rr-legend-tok">CS</tspan>  —  close square bracket ] (end of a list)</text><text class="rr-legend" x="16" y="2281"><tspan class="rr-legend-tok">GC</tspan>  —  , — selector-group separator</text><text class="rr-legend" x="16" y="2299"><tspan class="rr-legend-tok">KEY</tspan>  —  map key: bare text, number, string, or keyword</text><text class="rr-legend" x="16" y="2317"><tspan class="rr-legend-tok">OS</tspan>  —  open square bracket [ (start of a list)</text><text class="rr-legend" x="16" y="2335"><tspan class="rr-legend-tok">TX</tspan>  —  a selector, keyframe value, or property name</text><text class="rr-legend" x="16" y="2353"><tspan class="rr-legend-tok">VAL</tspan>  —  value: bare text, number, string, or keyword</text><text class="rr-legend" x="16" y="2371"><tspan class="rr-legend-tok">VL</tspan>  —  a declaration value (raw text)</text><text class="rr-title" x="16" y="2427">Ignored tokens</text><text class="rr-legend" x="16" y="2449"><tspan class="rr-legend-tok">CM</tspan>  —  comment</text><text class="rr-legend" x="16" y="2467"><tspan class="rr-legend-tok">LN</tspan>  —  newline (line break)</text><text class="rr-legend" x="16" y="2485"><tspan class="rr-legend-tok">SP</tspan>  —  whitespace (spaces or tabs)</text></g></svg>