<svg xmlns="http://www.w3.org/2000/svg" class="railroad" width="786" height="1164" viewBox="0 0 786 1164"><style>svg.railroad{background:#fff;font-family:monospace;font-size:13px}.rr-line{stroke:#334;stroke-width:2;fill:none}.rr-cap{fill:#334}.rr-term{fill:#e8f0ff;stroke:#334;stroke-width:2}.rr-nonterm{fill:#fff7e8;stroke:#334;stroke-width:2}.rr-label{fill:#111;text-anchor:middle;dominant-baseline:middle}.rr-comment{fill:#666;font-style:italic;text-anchor:middle;dominant-baseline:middle}.rr-title{fill:#113;font-weight:bold;font-size:15px}.rr-legend{fill:#333;font-size:12px}.rr-legend-tok{fill:#113;font-weight:bold}a:hover .rr-nonterm{fill:#ffe6b3;cursor:pointer}</style><g><g id="stylesheet"><text class="rr-title" x="16" y="31">stylesheet</text><circle class="rr-cap" cx="42" cy="42" r="3"/><path class="rr-line" d="M42 42V56"/><a href="#pair"><rect class="rr-nonterm" x="16" y="56" width="52" height="26" rx="4" ry="4"/><text class="rr-label" x="42" y="69">pair</text></a><path class="rr-line" d="M42 82V96"/><circle class="rr-cap" cx="42" cy="96" r="3"/></g><g id="val"><text class="rr-title" x="16" y="145">val</text><circle class="rr-cap" cx="190" cy="156" r="3"/><path class="rr-line" d="M190 156V170"/><path class="rr-line" d="M190 170V188"/><path class="rr-line" d="M46 188H334"/><path class="rr-line" d="M46 250H334"/><path class="rr-line" d="M190 250V268"/><path class="rr-line" d="M46 188V206"/><a href="#block"><rect class="rr-nonterm" x="16" y="206" width="60" height="26" rx="4" ry="4"/><text class="rr-label" x="46" y="219">block</text></a><path class="rr-line" d="M46 232V250"/><path class="rr-line" d="M120 188V206"/><rect class="rr-term" x="102" y="206" width="36" height="26" rx="13" ry="13"/><text class="rr-label" x="120" y="219">VL</text><path class="rr-line" d="M120 232V250"/><path class="rr-line" d="M186 188V206"/><a href="#map"><rect class="rr-nonterm" x="164" y="206" width="44" height="26" rx="4" ry="4"/><text class="rr-label" x="186" y="219">map</text></a><path class="rr-line" d="M186 232V250"/><path class="rr-line" d="M260 188V206"/><a href="#list"><rect class="rr-nonterm" x="234" y="206" width="52" height="26" rx="4" ry="4"/><text class="rr-label" x="260" y="219">list</text></a><path class="rr-line" d="M260 232V250"/><path class="rr-line" d="M334 188V206"/><rect class="rr-term" x="312" y="206" width="44" height="26" rx="13" ry="13"/><text class="rr-label" x="334" y="219">VAL</text><path class="rr-line" d="M334 232V250"/><path class="rr-line" d="M190 268V282"/><circle class="rr-cap" cx="190" cy="282" r="3"/></g><g id="map"><text class="rr-title" x="16" y="331">map</text><circle class="rr-cap" cx="64" cy="342" r="3"/><path class="rr-line" d="M64 342V356"/><rect class="rr-term" x="49" y="356" width="30" height="26" rx="13" ry="13"/><text class="rr-label" x="64" y="369">{</text><path class="rr-line" d="M64 382V400"/><path class="rr-line" d="M64 400V418"/><path class="rr-line" d="M42 418H86"/><path class="rr-line" d="M42 480H86"/><path class="rr-line" d="M64 480V498"/><path class="rr-line" d="M42 418V436"/><a href="#pair"><rect class="rr-nonterm" x="16" y="436" width="52" height="26" rx="4" ry="4"/><text class="rr-label" x="42" y="449">pair</text></a><path class="rr-line" d="M42 462V480"/><path class="rr-line" d="M86 418V436"/><path class="rr-line" d="M86 436V448"/><path class="rr-line" d="M86 448V480"/><path class="rr-line" d="M64 498V516"/><rect class="rr-term" x="49" y="516" width="30" height="26" rx="13" ry="13"/><text class="rr-label" x="64" y="529">}</text><path class="rr-line" d="M64 542V556"/><circle class="rr-cap" cx="64" cy="556" r="3"/></g><g id="list"><text class="rr-title" x="16" y="605">list</text><circle class="rr-cap" cx="112" cy="616" r="3"/><path class="rr-line" d="M112 616V630"/><path class="rr-line" d="M112 630V648"/><path class="rr-line" d="M42 648H182"/><path class="rr-line" d="M42 754H182"/><path class="rr-line" d="M112 754V772"/><path class="rr-line" d="M42 648V666"/><a href="#elem"><rect class="rr-nonterm" x="16" y="666" width="52" height="26" rx="4" ry="4"/><text class="rr-label" x="42" y="679">elem</text></a><path class="rr-line" d="M42 692V754"/><path class="rr-line" d="M112 648V666"/><rect class="rr-term" x="94" y="666" width="36" height="26" rx="13" ry="13"/><text class="rr-label" x="112" y="679">OS</text><path class="rr-line" d="M112 692V754"/><path class="rr-line" d="M182 648V666"/><rect class="rr-term" x="164" y="666" width="36" height="26" rx="13" ry="13"/><text class="rr-label" x="182" y="679">OS</text><path class="rr-line" d="M182 692V710"/><a href="#elem"><rect class="rr-nonterm" x="156" y="710" width="52" height="26" rx="4" ry="4"/><text class="rr-label" x="182" y="723">elem</text></a><path class="rr-line" d="M182 736V754"/><path class="rr-line" d="M112 772V790"/><rect class="rr-term" x="94" y="790" width="36" height="26" rx="13" ry="13"/><text class="rr-label" x="112" y="803">CS</text><path class="rr-line" d="M112 816V830"/><circle class="rr-cap" cx="112" cy="830" r="3"/></g><g id="pair"><text class="rr-title" x="404" y="31">pair</text><circle class="rr-cap" cx="562" cy="42" r="3"/><path class="rr-line" d="M562 42V56"/><path class="rr-line" d="M562 56V74"/><path class="rr-line" d="M562 74V92"/><path class="rr-line" d="M426 92H698"/><path class="rr-line" d="M426 242H698"/><path class="rr-line" d="M562 242V260"/><path class="rr-line" d="M426 92V110"/><rect class="rr-term" x="408" y="110" width="36" height="26" rx="13" ry="13"/><text class="rr-label" x="426" y="123">TX</text><path class="rr-line" d="M426 136V154"/><rect class="rr-term" x="411" y="154" width="30" height="26" rx="13" ry="13"/><text class="rr-label" x="426" y="167">:</text><path class="rr-line" d="M426 180V198"/><a href="#val"><rect class="rr-nonterm" x="404" y="198" width="44" height="26" rx="4" ry="4"/><text class="rr-label" x="426" y="211">val</text></a><path class="rr-line" d="M426 224V242"/><path class="rr-line" d="M496 92V110"/><rect class="rr-term" x="478" y="110" width="36" height="26" rx="13" ry="13"/><text class="rr-label" x="496" y="123">AT</text><path class="rr-line" d="M496 136V154"/><a href="#val"><rect class="rr-nonterm" x="474" y="154" width="44" height="26" rx="4" ry="4"/><text class="rr-label" x="496" y="167">val</text></a><path class="rr-line" d="M496 180V242"/><path class="rr-line" d="M562 92V110"/><rect class="rr-term" x="544" y="110" width="36" height="26" rx="13" ry="13"/><text class="rr-label" x="562" y="123">TX</text><path class="rr-line" d="M562 136V154"/><rect class="rr-term" x="544" y="154" width="36" height="26" rx="13" ry="13"/><text class="rr-label" x="562" y="167">GC</text><path class="rr-line" d="M562 180V242"/><path class="rr-line" d="M628 92V110"/><rect class="rr-term" x="610" y="110" width="36" height="26" rx="13" ry="13"/><text class="rr-label" x="628" y="123">TX</text><path class="rr-line" d="M628 136V154"/><a href="#val"><rect class="rr-nonterm" x="606" y="154" width="44" height="26" rx="4" ry="4"/><text class="rr-label" x="628" y="167">val</text></a><path class="rr-line" d="M628 180V242"/><path class="rr-line" d="M698 92V110"/><rect class="rr-term" x="676" y="110" width="44" height="26" rx="13" ry="13"/><text class="rr-label" x="698" y="123">KEY</text><path class="rr-line" d="M698 136V154"/><rect class="rr-term" x="683" y="154" width="30" height="26" rx="13" ry="13"/><text class="rr-label" x="698" y="167">:</text><path class="rr-line" d="M698 180V198"/><a href="#val"><rect class="rr-nonterm" x="676" y="198" width="44" height="26" rx="4" ry="4"/><text class="rr-label" x="698" y="211">val</text></a><path class="rr-line" d="M698 224V242"/><path class="rr-line" d="M562 260V278"/><path class="rr-line" d="M562 269H745"/><path class="rr-line" d="M562 65H745"/><path class="rr-line" d="M745 180V269"/><path class="rr-line" d="M745 65V154"/><rect class="rr-term" x="730" y="154" width="30" height="26" rx="13" ry="13"/><text class="rr-label" x="745" y="167">;</text><path class="rr-line" d="M562 278V292"/><circle class="rr-cap" cx="562" cy="292" r="3"/></g><g id="elem"><text class="rr-title" x="404" y="341">elem</text><circle class="rr-cap" cx="426" cy="352" r="3"/><path class="rr-line" d="M426 352V366"/><path class="rr-line" d="M426 366V384"/><a href="#val"><rect class="rr-nonterm" x="404" y="384" width="44" height="26" rx="4" ry="4"/><text class="rr-label" x="426" y="397">val</text></a><path class="rr-line" d="M426 410V428"/><path class="rr-line" d="M426 419H473"/><path class="rr-line" d="M426 375H473"/><path class="rr-line" d="M473 410V419"/><path class="rr-line" d="M473 375V384"/><rect class="rr-term" x="458" y="384" width="30" height="26" rx="13" ry="13"/><text class="rr-label" x="473" y="397">;</text><path class="rr-line" d="M426 428V442"/><circle class="rr-cap" cx="426" cy="442" r="3"/></g><g id="block"><text class="rr-title" x="404" y="491">block</text><circle class="rr-cap" cx="452" cy="502" r="3"/><path class="rr-line" d="M452 502V516"/><rect class="rr-term" x="437" y="516" width="30" height="26" rx="13" ry="13"/><text class="rr-label" x="452" y="529">{</text><path class="rr-line" d="M452 542V560"/><path class="rr-line" d="M452 560V578"/><path class="rr-line" d="M430 578H474"/><path class="rr-line" d="M430 640H474"/><path class="rr-line" d="M452 640V658"/><path class="rr-line" d="M430 578V596"/><a href="#pair"><rect class="rr-nonterm" x="404" y="596" width="52" height="26" rx="4" ry="4"/><text class="rr-label" x="430" y="609">pair</text></a><path class="rr-line" d="M430 622V640"/><path class="rr-line" d="M474 578V596"/><path class="rr-line" d="M474 596V608"/><path class="rr-line" d="M474 608V640"/><path class="rr-line" d="M452 658V676"/><rect class="rr-term" x="437" y="676" width="30" height="26" rx="13" ry="13"/><text class="rr-label" x="452" y="689">}</text><path class="rr-line" d="M452 702V716"/><circle class="rr-cap" cx="452" cy="716" r="3"/></g><text class="rr-title" x="16" y="879">Tokens</text><text class="rr-legend" x="16" y="901"><tspan class="rr-legend-tok">AT</tspan>  —  key: a statement at-keyword (e.g. @import)</text><text class="rr-legend" x="16" y="919"><tspan class="rr-legend-tok">CS</tspan>  —  close square bracket ] (end of a list)</text><text class="rr-legend" x="16" y="937"><tspan class="rr-legend-tok">GC</tspan>  —  , — selector-group separator</text><text class="rr-legend" x="16" y="955"><tspan class="rr-legend-tok">KEY</tspan>  —  map key: bare text, number, string, or keyword</text><text class="rr-legend" x="16" y="973"><tspan class="rr-legend-tok">OS</tspan>  —  open square bracket [ (start of a list)</text><text class="rr-legend" x="16" y="991"><tspan class="rr-legend-tok">TX</tspan>  —  key: a selector or property name</text><text class="rr-legend" x="16" y="1009"><tspan class="rr-legend-tok">VAL</tspan>  —  value: bare text, number, string, or keyword</text><text class="rr-legend" x="16" y="1027"><tspan class="rr-legend-tok">VL</tspan>  —  value: a declaration value (raw text)</text><text class="rr-title" x="16" y="1083">Ignored tokens</text><text class="rr-legend" x="16" y="1105"><tspan class="rr-legend-tok">CM</tspan>  —  comment</text><text class="rr-legend" x="16" y="1123"><tspan class="rr-legend-tok">LN</tspan>  —  newline (line break)</text><text class="rr-legend" x="16" y="1141"><tspan class="rr-legend-tok">SP</tspan>  —  whitespace (spaces or tabs)</text></g></svg>